<svg width="24" height="24" viewBox="0 0 24 24" fill="none" xmlns="http://www.w3.org/2000/svg">
<g id="Status_list">
<path id="Subtract" fill-rule="evenodd" clip-rule="evenodd" d="M5 6C4.44772 6 4 6.44772 4 7C4 7.55228 4.44772 8 5 8H19C19.5523 8 20 7.55228 20 7C20 6.44772 19.5523 6 19 6H5ZM5 11C4.44772 11 4 11.4477 4 12C4 12.5523 4.44772 13 5 13H19C19.5523 13 20 12.5523 20 12C20 11.4477 19.5523 11 19 11H5ZM5 16C4.44772 16 4 16.4477 4 17C4 17.5523 4.44772 18 5 18H14.083C14.2034 17.2821 14.4513 16.6074 14.8027 16H5ZM20 17C19.2597 17 18.6134 17.4022 18.2676 18H19C19.5523 18 20 17.5523 20 17Z" fill="#757575"/>
<path id="Vector 10" d="M19.647 16.4147L17.0397 15.0787C16.562 14.8339 16 15.1899 16 15.7372V18.2628C16 18.8101 16.562 19.1661 17.0397 18.9213L19.647 17.5853C20.1177 17.3442 20.1177 16.6558 19.647 16.4147Z" fill="#757575"/>
</g>
</svg>
