<svg width="32" height="32" viewBox="0 0 32 32" fill="none" xmlns="http://www.w3.org/2000/svg">
<g id="ion:play-back">
<path id="Vector" d="M30.0807 14.3418L18.2763 7.27927C17.9843 7.10158 17.6499 7.00558 17.3081 7.00129C16.9663 6.997 16.6296 7.08459 16.3332 7.2549C16.0116 7.44217 15.7453 7.71122 15.5613 8.03471C15.3773 8.35821 15.2822 8.72464 15.2857 9.09677V14.0374L3.99069 7.2774C3.69866 7.09971 3.36427 7.00371 3.02246 6.99942C2.68065 6.99513 2.34396 7.08271 2.04757 7.25302C1.72597 7.4403 1.45965 7.70934 1.27568 8.03284C1.0917 8.35634 0.996611 8.72276 1.00006 9.0949V22.9074C0.996435 23.2797 1.09145 23.6462 1.27543 23.9699C1.45942 24.2935 1.72583 24.5626 2.04757 24.7499C2.34396 24.9202 2.68065 25.0078 3.02246 25.0035C3.36427 24.9992 3.69866 24.9032 3.99069 24.7255L15.2857 17.9624V22.9049C15.2816 23.2776 15.3764 23.6447 15.5604 23.9688C15.7444 24.2929 16.0111 24.5624 16.3332 24.7499C16.6296 24.9202 16.9663 25.0078 17.3081 25.0035C17.6499 24.9992 17.9843 24.9032 18.2763 24.7255L30.0807 17.663C30.3613 17.4872 30.5927 17.243 30.753 16.9533C30.9134 16.6636 30.9976 16.3379 30.9976 16.0068C30.9976 15.6756 30.9134 15.3499 30.753 15.0602C30.5927 14.7705 30.3613 14.5263 30.0807 14.3505V14.3418Z" fill="#2b2b2b"/>
</g>
</svg>
