<svg width="24" height="24" viewBox="0 0 24 24" fill="none" xmlns="http://www.w3.org/2000/svg">
<g id="mingcute:volume-line" clip-path="url(#clip0_230_9913)">
<g id="Group">
<path id="Vector" fill-rule="evenodd" clip-rule="evenodd" d="M15 4.19408V19.8061C15.0001 20.0083 14.9444 20.2066 14.8391 20.3792C14.7338 20.5519 14.583 20.6921 14.4031 20.7846C14.2233 20.8771 14.0215 20.9182 13.8198 20.9035C13.6182 20.8888 13.4245 20.8187 13.26 20.7011L6.68 16.0001H4C3.46957 16.0001 2.96086 15.7894 2.58579 15.4143C2.21071 15.0392 2 14.5305 2 14.0001V10.0001C2 9.46964 2.21071 8.96094 2.58579 8.58586C2.96086 8.21079 3.46957 8.00008 4 8.00008H6.68L13.26 3.30008C13.4244 3.18248 13.618 3.11245 13.8196 3.09767C14.0212 3.08289 14.2229 3.12394 14.4027 3.21631C14.5825 3.30868 14.7333 3.4488 14.8387 3.62129C14.9441 3.79377 14.9999 3.99195 15 4.19408ZM13 5.94408L7.842 9.62608C7.50311 9.86879 7.09684 9.99955 6.68 10.0001H4V14.0001H6.68C7.09662 14 7.50287 14.1301 7.842 14.3721L13 18.0571V5.94408ZM18.255 6.86108C18.4319 6.6635 18.68 6.54429 18.9448 6.52966C19.2096 6.51503 19.4694 6.60619 19.667 6.78308C20.401 7.43964 20.9881 8.24367 21.3901 9.14265C21.7922 10.0416 22 11.0153 22 12.0001C22 12.9848 21.7922 13.9585 21.3901 14.8575C20.9881 15.7565 20.401 16.5605 19.667 17.2171C19.5694 17.3061 19.4551 17.3749 19.3308 17.4195C19.2064 17.4641 19.0745 17.4837 18.9426 17.477C18.8106 17.4703 18.6813 17.4376 18.5621 17.3806C18.4429 17.3237 18.3362 17.2437 18.2481 17.1453C18.1599 17.0469 18.0922 16.932 18.0487 16.8072C18.0053 16.6825 17.987 16.5503 17.9949 16.4185C18.0028 16.2866 18.0367 16.1576 18.0948 16.0389C18.1528 15.9203 18.2338 15.8143 18.333 15.7271C18.8574 15.2581 19.277 14.6837 19.5642 14.0415C19.8515 13.3992 20 12.7036 20 12.0001C20 10.5201 19.358 9.19008 18.333 8.27308C18.1354 8.09617 18.0162 7.84803 18.0016 7.58323C17.987 7.31843 18.0781 7.05867 18.255 6.86108ZM17.667 9.01908C18.0864 9.39425 18.4219 9.85368 18.6515 10.3674C18.8812 10.881 19 11.4374 19 12.0001C19 12.5628 18.8812 13.1191 18.6515 13.6328C18.4219 14.1465 18.0864 14.6059 17.667 14.9811C17.4774 15.1495 17.2308 15.2396 16.9773 15.2331C16.7237 15.2265 16.4821 15.1239 16.3014 14.946C16.1206 14.768 16.0143 14.5281 16.0038 14.2747C15.9933 14.0212 16.0796 13.7733 16.245 13.5811L16.333 13.4911C16.743 13.1231 17 12.5921 17 12.0001C17.0002 11.4882 16.804 10.9957 16.452 10.6241L16.333 10.5091C16.1382 10.3314 16.0215 10.0841 16.0082 9.82079C15.9949 9.55752 16.086 9.29963 16.2619 9.10323C16.4377 8.90684 16.684 8.78781 16.9471 8.77205C17.2103 8.75629 17.469 8.84507 17.667 9.01908Z" fill="#757575"/>
</g>
</g>
<defs>
<clipPath id="clip0_230_9913">
<rect width="24" height="24" fill="white"/>
</clipPath>
</defs>
</svg>
