<svg width="88" height="88" viewBox="0 0 88 88" fill="none" xmlns="http://www.w3.org/2000/svg">
<g id="Check_round_fill">
<path id="Subtract" fill-rule="evenodd" clip-rule="evenodd" d="M43.999 76.9995C62.2244 76.9995 76.999 62.2249 76.999 43.9995C76.999 25.7741 62.2244 10.9995 43.999 10.9995C25.7736 10.9995 10.999 25.7741 10.999 43.9995C10.999 62.2249 25.7736 76.9995 43.999 76.9995ZM61.0043 34.9468C62.0797 33.6563 61.9054 31.7384 60.6149 30.6629C59.3244 29.5875 57.4064 29.7619 56.331 31.0524L42.2622 47.9349C41.2076 49.2004 40.6147 49.9011 40.1414 50.3316L40.1233 50.348L40.1038 50.3333C39.5934 49.9474 38.9396 49.3033 37.7747 48.1385L31.4851 41.8488C30.2973 40.661 28.3714 40.661 27.1835 41.8488C25.9957 43.0367 25.9957 44.9626 27.1835 46.1504L33.4732 52.44L33.5973 52.5642L33.5974 52.5643C34.5905 53.5577 35.5458 54.5134 36.4347 55.1856C37.4304 55.9385 38.7345 56.6465 40.4056 56.5707C42.0767 56.4949 43.3113 55.6718 44.2347 54.8318C45.0591 54.0819 45.924 53.0436 46.8231 51.9643L46.9355 51.8294L61.0043 34.9468Z" fill="#FF8F0F"/>
</g>
</svg>
