<svg width="296" height="195" viewBox="0 0 296 195" fill="none" xmlns="http://www.w3.org/2000/svg">
<ellipse cx="131.296" cy="100" rx="73.1179" ry="70" fill="url(#paint0_linear_90_180)"/>
<ellipse cx="166.811" cy="105" rx="73.1179" ry="70" fill="url(#paint1_linear_90_180)"/>
<ellipse cx="148.009" cy="125" rx="73.1179" ry="70" fill="url(#paint2_linear_90_180)"/>
<ellipse cx="129.207" cy="110" rx="73.1179" ry="70" fill="url(#paint3_linear_90_180)"/>
<ellipse cx="72.7562" cy="70.3759" rx="72.7562" ry="70.3759" transform="matrix(0.943678 0.330866 -0.357292 0.933993 104.29 0)" fill="url(#paint4_linear_90_180)"/>
<g clip-path="url(#clip0_90_180)">
<path fill-rule="evenodd" clip-rule="evenodd" d="M35.8784 24.8733C36.3738 24.6237 36.9177 24.4851 37.4722 24.467C38.0267 24.4489 38.5785 24.5517 39.0892 24.7684C39.5999 24.9851 40.0573 25.3104 40.4296 25.7217C40.8018 26.1331 41.0801 26.6205 41.2449 27.1502L47.946 48.7123C48.4448 50.3186 48.3997 52.0447 47.8176 53.6227C47.2355 55.2008 46.149 56.5427 44.7266 57.4403C43.3042 58.338 41.6253 58.7412 39.9504 58.5875C38.2754 58.4338 36.698 57.7317 35.4627 56.5901C34.2274 55.4486 33.4033 53.9313 33.1182 52.2737C32.8331 50.616 33.1029 48.9106 33.8858 47.4219C34.6686 45.9332 35.9208 44.7444 37.4481 44.0399C38.9755 43.3354 40.6926 43.1545 42.3332 43.5253L39.8642 35.5809L22.5673 44.2912L26.6225 57.3397C26.6565 57.4491 26.6803 57.5578 26.6938 57.6656C27.2607 59.0277 27.3612 60.539 26.9796 61.9641C26.598 63.3893 25.7557 64.6482 24.584 65.5447C23.4123 66.4412 21.977 66.925 20.5016 66.9207C19.0263 66.9164 17.5938 66.4242 16.4274 65.5208C15.2609 64.6175 14.426 63.3537 14.0528 61.9264C13.6795 60.499 13.7888 58.9883 14.3637 57.6296C14.9386 56.2708 15.9467 55.1404 17.231 54.4144C18.5154 53.6884 20.0038 53.4076 21.4644 53.6157L16.6511 38.1282C16.3826 37.2646 16.4292 36.3337 16.7825 35.5012C17.1359 34.6687 17.7731 33.9885 18.5808 33.5817L35.8784 24.8733ZM21.4181 40.5935L38.7151 31.8833L37.5965 28.2841L20.2995 36.9943L21.4181 40.5935Z" fill="#FF6C6C"/>
</g>
<g clip-path="url(#clip1_90_180)">
<path fill-rule="evenodd" clip-rule="evenodd" d="M286.365 139.73C286.79 139.85 287.184 140.062 287.519 140.351C287.853 140.639 288.121 140.997 288.304 141.399C288.486 141.801 288.579 142.238 288.576 142.68C288.572 143.122 288.472 143.557 288.283 143.957L280.589 160.206C280.015 161.416 279.059 162.403 277.867 163.015C276.675 163.626 275.315 163.827 273.998 163.586C272.68 163.345 271.479 162.677 270.58 161.684C269.681 160.691 269.135 159.429 269.026 158.094C268.918 156.76 269.253 155.426 269.979 154.301C270.705 153.176 271.783 152.322 273.044 151.871C274.305 151.421 275.68 151.399 276.955 151.809C278.23 152.219 279.333 153.039 280.095 154.141L282.93 148.154L268.098 143.935L263.441 153.769C263.402 153.851 263.358 153.928 263.307 153.998C262.906 155.102 262.15 156.042 261.158 156.672C260.166 157.301 258.994 157.585 257.824 157.479C256.654 157.373 255.552 156.883 254.69 156.085C253.827 155.287 253.253 154.227 253.056 153.068C252.86 151.91 253.052 150.72 253.602 149.682C254.153 148.644 255.031 147.818 256.1 147.331C257.17 146.845 258.37 146.726 259.514 146.992C260.658 147.259 261.682 147.897 262.425 148.806L267.952 137.135C268.26 136.484 268.789 135.963 269.445 135.666C270.101 135.368 270.841 135.313 271.534 135.51L286.365 139.73ZM269.417 141.149L284.25 145.367L285.534 142.655L270.702 138.437L269.417 141.149Z" fill="#FFB45E"/>
</g>
<g clip-path="url(#clip2_90_180)">
<path fill-rule="evenodd" clip-rule="evenodd" d="M55.121 174.058C55.3858 174.221 55.6118 174.44 55.7834 174.699C55.9549 174.959 56.068 175.252 56.1146 175.56C56.1613 175.867 56.1404 176.181 56.0535 176.48C55.9666 176.778 55.8156 177.054 55.6112 177.289L47.2883 186.823C46.6682 187.534 45.831 188.019 44.9067 188.205C43.9824 188.391 43.0226 188.267 42.1761 187.852C41.3297 187.436 40.6438 186.754 40.225 185.909C39.8062 185.064 39.6777 184.105 39.8596 183.18C40.0415 182.255 40.5236 181.416 41.231 180.792C41.9385 180.169 42.8318 179.797 43.7724 179.733C44.7131 179.669 45.6485 179.918 46.4336 180.44C47.2187 180.962 47.8097 181.728 48.1148 182.62L51.1813 179.107L41.9407 173.41L36.904 179.181C36.8618 179.229 36.8169 179.272 36.7694 179.31C36.2858 179.981 35.594 180.473 34.8016 180.71C34.0092 180.947 33.1608 180.914 32.3885 180.619C31.6162 180.323 30.9635 179.78 30.532 179.074C30.1005 178.369 29.9145 177.541 30.0029 176.718C30.0913 175.896 30.4492 175.126 31.0208 174.529C31.5924 173.931 32.3457 173.539 33.1632 173.414C33.9807 173.289 34.8165 173.438 35.5405 173.838C36.2644 174.238 36.8359 174.866 37.1658 175.624L43.1439 168.775C43.4772 168.393 43.9352 168.142 44.4364 168.066C44.9376 167.99 45.4496 168.094 45.8811 168.36L55.121 174.058ZM43.368 171.775L52.6086 177.472L53.9979 175.88L44.7572 170.184L43.368 171.775Z" fill="#5EC9FF"/>
</g>
<g clip-path="url(#clip3_90_180)">
<path fill-rule="evenodd" clip-rule="evenodd" d="M258.999 36.1932C259.226 36.2579 259.437 36.3714 259.616 36.5258C259.796 36.6802 259.939 36.8718 260.037 37.0873C260.135 37.3028 260.184 37.537 260.182 37.7736C260.181 38.0102 260.127 38.2435 260.026 38.4574L255.904 47.1612C255.597 47.8095 255.085 48.3383 254.446 48.6657C253.808 48.993 253.08 49.1006 252.374 48.9717C251.668 48.8429 251.025 48.4847 250.543 47.9529C250.062 47.4211 249.769 46.7452 249.711 46.0302C249.653 45.3152 249.832 44.6009 250.221 43.9982C250.61 43.3955 251.187 42.938 251.863 42.6967C252.539 42.4554 253.275 42.4437 253.958 42.6635C254.641 42.8833 255.232 43.3223 255.64 43.9123L257.159 40.7055L249.214 38.446L246.719 43.7132C246.699 43.7574 246.675 43.7984 246.648 43.8361C246.432 44.4274 246.028 44.9309 245.496 45.2681C244.965 45.6053 244.337 45.7574 243.711 45.7005C243.084 45.6437 242.494 45.3812 242.032 44.9538C241.57 44.5265 241.262 43.9585 241.157 43.3381C241.051 42.7177 241.154 42.0799 241.449 41.5241C241.744 40.9682 242.215 40.5255 242.787 40.2649C243.36 40.0044 244.003 39.9405 244.616 40.0834C245.229 40.2263 245.777 40.5679 246.175 41.0549L249.136 34.8032C249.301 34.4546 249.584 34.1758 249.935 34.0164C250.287 33.8571 250.683 33.8275 251.054 33.933L258.999 36.1932ZM249.92 36.9534L257.865 39.2129L258.553 37.76L250.608 35.5006L249.92 36.9534Z" fill="#FFCACA"/>
</g>
<defs>
<linearGradient id="paint0_linear_90_180" x1="204.414" y1="100" x2="58.1782" y2="100" gradientUnits="userSpaceOnUse">
<stop stop-color="#FF8F0F"/>
<stop offset="1" stop-color="#FFF4E7" stop-opacity="0"/>
</linearGradient>
<linearGradient id="paint1_linear_90_180" x1="93.6926" y1="105" x2="239.928" y2="105" gradientUnits="userSpaceOnUse">
<stop stop-color="#FF8F0F"/>
<stop offset="1" stop-color="#FFDCB5" stop-opacity="0.23"/>
</linearGradient>
<linearGradient id="paint2_linear_90_180" x1="111.117" y1="55" x2="179.907" y2="197.412" gradientUnits="userSpaceOnUse">
<stop stop-color="#FF3D3D" stop-opacity="0.63"/>
<stop offset="1" stop-color="#FFDEDE" stop-opacity="0"/>
</linearGradient>
<linearGradient id="paint3_linear_90_180" x1="136.519" y1="98.5" x2="58.0187" y2="148.356" gradientUnits="userSpaceOnUse">
<stop stop-color="#FB56AB" stop-opacity="0.69"/>
<stop offset="1" stop-color="#FFA973" stop-opacity="0"/>
</linearGradient>
<linearGradient id="paint4_linear_90_180" x1="72.7562" y1="140.752" x2="72.7562" y2="0" gradientUnits="userSpaceOnUse">
<stop stop-color="#FFDCB5" stop-opacity="0"/>
<stop offset="1" stop-color="#FF8F0F" stop-opacity="0.69"/>
</linearGradient>
<clipPath id="clip0_90_180">
<rect width="45.8464" height="45.8464" fill="white" transform="translate(0 29.6063) rotate(-17.2643)"/>
</clipPath>
<clipPath id="clip1_90_180">
<rect width="36.5053" height="36.5053" fill="white" transform="translate(262.787 123.165) rotate(25.3394)"/>
</clipPath>
<clipPath id="clip2_90_180">
<rect width="25.6985" height="25.6985" fill="white" transform="translate(42.3184 158.323) rotate(41.1171)"/>
</clipPath>
<clipPath id="clip3_90_180">
<rect width="19.554" height="19.554" fill="white" transform="translate(246.369 27.3204) rotate(25.3394)"/>
</clipPath>
</defs>
</svg>
