<svg width="144" height="36" viewBox="0 0 144 36" fill="none" xmlns="http://www.w3.org/2000/svg">
<path d="M12.1327 23.76C12.0527 25.6 11.8927 27.44 11.6927 29.24C11.4127 32.24 9.73266 34.6 6.41266 34.6C3.01266 34.6 1.37266 32.24 1.09266 29.24C0.292656 21.64 0.292656 13.28 1.09266 5.72C1.37266 2.76 3.01266 0.399998 6.41266 0.399998C9.73266 0.399998 11.4127 2.76 11.6927 5.72C11.8927 7.52 12.0527 9.36 12.1327 11.2C14.1727 10.72 16.4127 10.68 18.4527 11.16C18.5727 9.32 18.6927 7.52 18.8927 5.72C19.2127 2.76 20.8527 0.399998 24.1727 0.399998C27.5327 0.399998 29.2127 2.76 29.5327 5.72C30.2927 13.28 30.2927 21.64 29.5327 29.24C29.2127 32.24 27.5327 34.6 24.1727 34.6C20.8527 34.6 19.2127 32.24 18.8927 29.24C18.6927 27.44 18.5727 25.64 18.4527 23.8C16.4127 24.28 14.1727 24.24 12.1327 23.76ZM47.828 31.64C46.028 34.36 43.268 35.28 40.148 35.28C35.588 35.28 31.988 32.88 31.988 28.48C31.988 24.48 35.068 21.96 39.148 21.16C42.868 20.4 45.468 18.72 46.788 16.72C47.308 15.92 46.148 15.12 45.628 15.88C44.068 18.16 40.948 19.84 37.508 19.84C34.388 19.84 32.748 18.2 32.748 15.96C32.748 11.92 37.988 9.32 44.188 9.32C50.548 9.32 54.188 11.56 55.828 16.2C57.228 20.12 57.188 26.44 56.068 31.32C55.548 33.68 54.188 34.92 51.908 34.92C49.668 34.92 48.308 33.8 47.828 31.64ZM41.028 28.8C42.948 28.56 44.748 27.28 46.228 26.04C47.028 25.4 46.028 24.44 45.508 24.84C43.988 26.12 42.548 26.96 40.428 27.48C39.788 27.64 40.108 28.92 41.028 28.8ZM69.1552 10.24C67.8352 11.6 66.9152 13.44 66.7552 15.36C66.6352 16.32 67.4752 16.44 67.6752 15.6C68.7152 10.84 71.1552 9 74.8352 9.28C78.1552 9.52 79.2752 12.96 79.2352 15.2C79.2352 17.32 78.7552 21.04 74.8752 21.64C73.5952 21.84 72.1152 21.28 70.8752 20.28C70.2752 19.76 69.9552 20.28 69.9552 20.96C69.8752 23.84 69.7152 26.76 69.4352 29.6C69.1152 32.6 67.4752 34.96 64.1552 34.96C60.7552 34.96 59.0752 32.6 58.8352 29.6C58.3952 23.76 58.5952 17.96 58.6752 12.12C58.7152 10.8 59.3952 9.72 60.4352 9.56C61.2752 9.4 62.4352 9.32 63.6752 9.32C65.9952 9.32 68.4352 9.68 69.1552 10.24ZM104.939 27.52H104.899C104.859 28.24 104.819 28.96 104.739 29.64C104.419 32.64 102.539 34.6 99.0589 34.6C95.5389 34.6 93.7389 32.64 93.3789 29.64C93.2989 28.96 93.2189 28.24 93.1789 27.52C93.1789 26.52 92.2189 26.4 91.9389 27.2C91.8589 28.04 91.8189 28.84 91.7389 29.64C91.4189 32.64 89.7789 34.6 86.4589 34.6C83.0589 34.6 81.2989 32.64 80.9789 29.64C80.6989 27 80.5789 23.92 80.4989 21.28V14.12C80.4989 11.24 82.4189 9.32 85.2989 9.32C87.5789 9.32 89.8989 9.96 90.7389 11.76C88.6589 14.28 87.6189 17.2 87.9389 20.32C88.0589 21.28 89.1389 21.2 89.0989 20.4C88.7789 16.32 91.0189 12 93.6189 10.48C94.7389 9.76 96.0589 9.32 97.3789 9.32C99.5789 9.32 102.059 10 103.579 11.68C101.819 13.92 101.059 16.68 101.219 19.52C101.419 20.48 102.339 20.2 102.339 19.48C102.099 15.48 104.499 11.8 106.419 10.48C107.419 9.8 108.979 9.36 110.619 9.36C113.179 9.36 115.259 10.28 116.779 12.44C117.979 14.2 118.219 15.84 118.179 21.8C118.139 24.96 117.979 26.64 117.579 29.64C117.179 32.64 115.459 34.6 111.979 34.6C108.459 34.6 106.739 32.64 106.379 29.64C106.299 28.96 106.219 28.28 106.179 27.56C106.179 26.4 104.939 26.36 104.939 27.52ZM125.33 33.08C121.73 30.8 119.97 26.64 119.89 22.52C119.81 17.56 121.97 12.6 126.09 10.68C128.09 9.76 130.33 9.32 132.45 9.32C138.13 9.32 143.01 12.12 142.65 18.44C142.45 22.24 140.53 24 136.49 24.96C134.41 25.48 131.21 25.32 130.01 23.4C129.81 23.08 128.89 23.08 129.01 23.84C129.17 25 131.17 26.6 134.01 26.6C134.53 26.6 135.29 26.44 135.77 26.32C139.37 25.28 140.93 25.24 142.05 28.56C142.93 31.08 141.57 32.96 137.61 34.2C135.69 34.8 134.45 34.88 132.49 34.88C129.93 34.88 127.41 34.4 125.33 33.08ZM130.65 18.08C132.69 17.52 134.37 17.6 136.29 18C136.93 18.08 137.29 16.72 136.37 16.56C134.49 16.16 132.33 15.84 130.53 16.6C129.73 16.92 130.01 18.24 130.65 18.08Z" fill="#FF8F0F"/>
</svg>
